<svg width="25" height="25" viewBox="0 0 25 25" fill="none" xmlns="http://www.w3.org/2000/svg">
<path d="M13.7688 4.16878C14.0688 3.86882 14.4757 3.70032 14.9 3.70032C15.3243 3.70032 15.7311 3.86882 16.0312 4.16878L23.2312 11.3688C23.5311 11.6688 23.6996 12.0757 23.6996 12.5C23.6996 12.9242 23.5311 13.3311 23.2312 13.6312L16.0312 20.8312C15.7294 21.1226 15.3253 21.2839 14.9057 21.2803C14.4862 21.2766 14.0849 21.1083 13.7883 20.8117C13.4916 20.515 13.3234 20.1137 13.3197 19.6942C13.3161 19.2747 13.4773 18.8705 13.7688 18.5688L18.1 14.1H2.89999C2.47564 14.1 2.06868 13.9314 1.76862 13.6313C1.46856 13.3313 1.29999 12.9243 1.29999 12.5C1.29999 12.0756 1.46856 11.6687 1.76862 11.3686C2.06868 11.0685 2.47564 10.9 2.89999 10.9H18.1L13.7688 6.43118C13.4688 6.13113 13.3003 5.72424 13.3003 5.29998C13.3003 4.87571 13.4688 4.46882 13.7688 4.16878Z" fill="white"/>
</svg>
