<svg width="30" height="31" viewBox="0 0 30 31" fill="none" xmlns="http://www.w3.org/2000/svg">
<path opacity="0.2" d="M26.843 13.2488L21.1359 18.1707L22.8797 25.5289C22.9258 25.718 22.9148 25.9165 22.8481 26.0994C22.7814 26.2822 22.662 26.4412 22.505 26.5562C22.348 26.6712 22.1604 26.7371 21.9659 26.7455C21.7715 26.7539 21.5789 26.7045 21.4125 26.6035L15 22.659L8.5875 26.6023C8.42113 26.7034 8.22854 26.7528 8.03409 26.7443C7.83964 26.7359 7.65205 26.67 7.49502 26.555C7.338 26.44 7.2186 26.2811 7.1519 26.0982C7.08521 25.9154 7.07422 25.7168 7.12031 25.5277L8.86406 18.1695L3.15703 13.2477C3.01152 13.1199 2.90662 12.9523 2.85526 12.7656C2.80391 12.5789 2.80836 12.3812 2.86806 12.197C2.92776 12.0128 3.04009 11.8501 3.1912 11.729C3.34231 11.6079 3.52557 11.5338 3.71836 11.5156L11.2078 10.9063L14.093 3.92188C14.1665 3.74169 14.2921 3.58749 14.4536 3.47895C14.6152 3.37041 14.8054 3.31244 15 3.31244C15.1946 3.31244 15.3848 3.37041 15.5464 3.47895C15.7079 3.58749 15.8335 3.74169 15.907 3.92188L18.7922 10.9063L26.2816 11.5156C26.4747 11.5335 26.6583 11.6077 26.8096 11.7288C26.961 11.85 27.0735 12.0129 27.1332 12.1973C27.193 12.3818 27.1973 12.5797 27.1457 12.7666C27.0941 12.9535 26.9889 13.1211 26.843 13.2488Z" fill="#FFC700"/>
<path d="M28.0289 11.8977C27.9117 11.5374 27.6905 11.2198 27.3931 10.985C27.0957 10.7502 26.7355 10.6086 26.3578 10.5781L19.4438 10.0203L16.7742 3.56447C16.6299 3.2127 16.3842 2.9118 16.0683 2.70003C15.7525 2.48826 15.3809 2.37518 15.0006 2.37518C14.6204 2.37518 14.2487 2.48826 13.9329 2.70003C13.6171 2.9118 13.3713 3.2127 13.227 3.56447L10.5598 10.0192L3.64221 10.5781C3.2639 10.6101 2.90344 10.7531 2.606 10.989C2.30856 11.225 2.08737 11.5434 1.97013 11.9045C1.85289 12.2656 1.84482 12.6533 1.94693 13.019C2.04904 13.3847 2.25679 13.7121 2.54416 13.9602L7.8176 18.5106L6.21096 25.3145C6.1211 25.6841 6.1431 26.0721 6.27416 26.4292C6.40523 26.7863 6.63944 27.0965 6.94708 27.3202C7.25472 27.544 7.6219 27.6713 8.00202 27.686C8.38214 27.7007 8.75806 27.6021 9.08205 27.4028L15 23.7606L20.9215 27.4028C21.2456 27.5997 21.6208 27.6964 21.9997 27.6806C22.3786 27.6648 22.7444 27.5373 23.051 27.314C23.3576 27.0907 23.5913 26.7817 23.7226 26.4259C23.854 26.0701 23.8771 25.6834 23.7891 25.3145L22.1766 18.5094L27.45 13.959C27.7397 13.7113 27.9494 13.3832 28.0524 13.0162C28.1555 12.6493 28.1473 12.26 28.0289 11.8977ZM26.2313 12.5387L20.5242 17.4606C20.3941 17.5727 20.2973 17.7185 20.2444 17.882C20.1915 18.0455 20.1845 18.2204 20.2242 18.3875L21.968 25.7469C21.9725 25.757 21.9729 25.7685 21.9692 25.779C21.9655 25.7895 21.958 25.7981 21.9481 25.8031C21.927 25.8196 21.9211 25.816 21.9035 25.8031L15.491 21.8598C15.3434 21.769 15.1734 21.7209 15 21.7209C14.8267 21.7209 14.6567 21.769 14.509 21.8598L8.0965 25.8055C8.07892 25.816 8.07424 25.8196 8.05197 25.8055C8.04208 25.8004 8.0345 25.7918 8.03079 25.7813C8.02709 25.7709 8.02754 25.7594 8.03205 25.7492L9.7758 18.3899C9.81554 18.2227 9.80858 18.0478 9.75567 17.8844C9.70276 17.7209 9.60595 17.5751 9.4758 17.4629L3.76877 12.541C3.75471 12.5293 3.74181 12.5188 3.75353 12.4824C3.76525 12.4461 3.77463 12.4508 3.79221 12.4485L11.2828 11.8438C11.4546 11.829 11.6191 11.7672 11.758 11.6651C11.8969 11.5629 12.005 11.4244 12.0703 11.2649L14.9555 4.27932C14.9649 4.2594 14.9684 4.25002 14.9965 4.25002C15.0246 4.25002 15.0281 4.2594 15.0375 4.27932L17.9297 11.2649C17.9956 11.4245 18.1044 11.5628 18.244 11.6646C18.3836 11.7663 18.5486 11.8275 18.7207 11.8414L26.2113 12.4461C26.2289 12.4461 26.2395 12.4461 26.25 12.4801C26.2606 12.5141 26.25 12.527 26.2313 12.5387Z" fill="#FFC700"/>
</svg>
